<svg aria-hidden="true" focusable="false" data-prefix="fas" data-icon="layer-group" class="svg-inline--fa my-fa-layer-group fa-w-16" role="img" xmlns="http://www.w3.org/2000/svg" viewBox="0 0 512 512" width="100%" height="100%"  xmlns:xlink="http://www.w3.org/1999/xlink"><rect id="svgEditorBackground" x="0" y="0" width="512" height="512" style="fill:none;stroke:none;"/>
    <path fill="white" class="walkLayerIcon" d="m 165.74747,193.40006 -15.31144,-6.94002 -42.82546,19.41248 c -2.00025,0.90752 -4.12485,1.3679 -6.31296,1.3679 -2.188096,0 -4.310056,-0.46038 -6.312946,-1.3679 l -42.822816,-19.41248 -15.314083,6.94002 c -4.378854,1.98438 -4.378854,8.59896 0,10.58333 l 61.632039,27.93736 c 1.799166,0.81492 3.833806,0.81492 5.632976,0 l 61.63469,-27.93736 c 4.37885,-1.98437 4.37885,-8.59895 0,-10.58333 z" transform="matrix(3.67623, 0, 0, 3.67623, -117.826, -350.27)"/>
    <path fill="#2ca445" class="bikeLayerIcon" d="m 165.74747,159.58631 -15.36965,-6.96648 -42.76725,19.38602 c -2.00025,0.90752 -4.12485,1.3679 -6.31296,1.3679 -2.188096,0 -4.310056,-0.46038 -6.312946,-1.3679 l -42.764607,-19.38602 -15.372292,6.96648 c -4.378854,1.98438 -4.378854,8.59896 0,10.58334 L 98.479804,198.107 c 1.799166,0.81492 3.833806,0.81492 5.632976,0 l 61.63469,-27.93735 c 4.37885,-1.98438 4.37885,-8.59896 0,-10.58334 z" transform="matrix(3.67623, 0, 0, 3.67623, -117.826, -350.27)"/>
    <path fill="white" class="carLayerIcon" d="M36.847765,136.2289l61.632039,27.958519999999993c1.7991659999999996,0.8175599999999861,3.8338059999999956,0.8175599999999861,5.632975999999999,0l61.63204,-27.958519999999993c4.378860000000003,-1.9870300000000043,4.378860000000003,-8.604250000000008,0,-10.591279999999998l-61.62939,-27.961163000000013a6.7751854,6.7751854,0,0,0,-5.632975999999999,0l-61.634689,27.958523c-4.378853999999997,1.9870200000000011,-4.378853999999997,8.606890000000007,0,10.593920000000011Z" transform="matrix(3.67623, 0, 0, 3.67623, -117.826, -350.27)"/>
</svg>
